<svg width="161" height="41" viewBox="0 0 161 41" fill="none" xmlns="http://www.w3.org/2000/svg">
<g clip-path="url(#clip0)">
<path d="M36.3408 0.999709H3.68301C1.67314 0.973393 0.0263072 2.57866 0 4.58918C0 4.59444 0 4.59971 0 4.60497V22.6944H39.9869V4.60497C39.9711 2.60497 38.3401 0.989182 36.3408 0.999709ZM9.3864 6.84708C9.26013 7.01023 9.06546 7.09971 8.86026 7.09971H6.11379V9.84708C6.11379 10.0523 6.02435 10.2471 5.86124 10.3734C5.44033 10.7734 4.77212 10.7576 4.37226 10.3365C4.19337 10.1471 4.08814 9.89971 4.08288 9.64181V6.13655C4.08288 5.5576 4.55641 5.08392 5.13516 5.08392H8.63928C9.21804 5.09971 9.67579 5.58392 9.66 6.16287C9.65474 6.42076 9.55477 6.66287 9.3864 6.84708Z" fill="#60B515"/>
<path opacity="0.5" d="M36.909 30.4421L12.7537 29.9105L0.0578613 22.6526L29.927 11.9684L36.909 16V30.4421Z" fill="url(#paint0_linear)"/>
<path opacity="0.5" d="M35.4358 29.5158H33.6416L9.72314 15.6684L25.7284 8.66841L38.6926 16.3V26.2158C38.6874 28.021 37.2405 29.4895 35.4358 29.5158Z" fill="url(#paint1_linear)"/>
<path opacity="0.5" d="M28.6538 30.7895H26.8596L14.9056 23.8789L29.7955 16.0421L39.5134 21.8316L31.9053 27.4842C31.9053 29.2895 30.4584 30.7631 28.6538 30.7895Z" fill="url(#paint2_linear)"/>
<path opacity="0.5" d="M33.3523 37.6526H14.5584L1.83624 30.5316L28.075 30.0368L33.3523 33.0842V37.6526Z" fill="url(#paint3_linear)"/>
<path d="M29.6061 15.9474V15.9158C29.6377 11.1105 25.7758 7.18947 20.9721 7.1421H20.8774C19.6041 7.13158 18.3466 7.41052 17.1944 7.95789C14.9635 9.01579 13.2799 10.9684 12.5643 13.3316V13.3579C9.23908 13.7684 6.87143 16.7947 7.28183 20.1211C7.29761 20.2526 7.31866 20.3895 7.34496 20.5211C7.50281 21.3737 7.8448 22.1842 8.3499 22.8895C9.48637 24.4947 11.3331 25.4474 13.3009 25.4474H27.591C30.3322 25.4368 32.5473 23.2 32.5367 20.4579C32.5262 18.5105 31.3845 16.7474 29.6061 15.9474Z" fill="white"/>
<path d="M23.3976 33.0316H16.4525V39.6421H23.3976V33.0316Z" fill="#60B515"/>
<path d="M0 24.7263V27.5526C0.0105229 29.5632 1.64683 31.179 3.6567 31.1684C3.66722 31.1684 3.67248 31.1684 3.68301 31.1684H36.3408C38.3506 31.1947 39.9975 29.5895 40.0238 27.5789C40.0238 27.5684 40.0238 27.5632 40.0238 27.5526V24.7263H0Z" fill="#60B515"/>
<path d="M12.0487 38.9684H27.8014C28.0856 38.9684 28.3118 39.1947 28.3118 39.4788V40.489C28.3118 40.7731 28.0856 40.9993 27.8014 40.9993H12.0487C11.7646 40.9993 11.5383 40.7731 11.5383 40.489V39.4788C11.5383 39.1947 11.7646 38.9684 12.0487 38.9684Z" fill="#60B515"/>
<path d="M50.4099 12.6419C50.4099 11.6472 51.2149 10.8419 52.2093 10.8419C53.2037 10.8419 54.0034 11.6472 54.0087 12.6419V19.5208H63.7844V12.6419C63.7844 11.6472 64.5894 10.8419 65.5838 10.8419C66.5783 10.8419 67.378 11.6472 67.3833 12.6419V29.8577C67.3833 30.8524 66.5783 31.6577 65.5838 31.6577C64.5894 31.6577 63.7897 30.8524 63.7844 29.8577V22.8577H54.0087V29.8577C54.0087 30.8524 53.2037 31.6577 52.2093 31.6577C51.2149 31.6577 50.4099 30.8524 50.4099 29.8577V12.6419Z" fill="#7D8996"/>
<path d="M71.3925 23.8526V23.7947C71.4924 19.2421 75.2596 15.6316 79.8055 15.7316C84.1935 15.8263 87.7397 19.3474 87.866 23.7368V23.7947C87.8555 28.2579 84.2251 31.8632 79.7687 31.8474C79.7055 31.8474 79.6476 31.8474 79.5845 31.8474C75.1702 31.9579 71.5029 28.4684 71.3925 24.0526C71.3925 23.9895 71.3925 23.9211 71.3925 23.8526ZM84.3303 23.8526V23.7947C84.3303 21.0737 82.3678 18.8211 79.595 18.8211C76.8223 18.8211 74.9439 21.0421 74.9439 23.7368V23.7947C74.9439 26.4895 76.9012 28.7421 79.6529 28.7421C82.5151 28.7421 84.3303 26.5158 84.3303 23.8526Z" fill="#7D8996"/>
<path d="M91.4701 17.6474C91.4543 16.6789 92.2225 15.8789 93.1906 15.8632C93.2011 15.8632 93.2169 15.8632 93.2274 15.8632C94.2061 15.8579 95.0058 16.6474 95.0111 17.6263C95.0111 17.6316 95.0111 17.6421 95.0111 17.6474V19.2263C95.8318 17.2895 97.3577 15.8263 98.9045 15.8263C99.8095 15.7579 100.593 16.4368 100.662 17.3421C100.667 17.421 100.667 17.5 100.662 17.5842C100.688 18.4263 100.088 19.1526 99.257 19.2842C96.7421 19.721 95.0111 21.6526 95.0111 25.3158V29.8789C95.0058 30.8579 94.2113 31.6421 93.2327 31.6368H93.2274C92.2646 31.6474 91.4806 30.8737 91.4701 29.9105C91.4701 29.9 91.4701 29.8895 91.4701 29.8789V17.6474Z" fill="#7D8996"/>
<path d="M103.503 11.8789C103.503 10.8263 104.376 10.1526 105.518 10.1526C106.66 10.1526 107.539 10.8263 107.539 11.8789V12.0526C107.539 13.1053 106.66 13.8053 105.518 13.8053C104.376 13.8053 103.503 13.1053 103.503 12.0526V11.8789ZM103.766 17.6684C103.745 16.7053 104.513 15.9053 105.476 15.8842C105.492 15.8842 105.502 15.8842 105.518 15.8842C106.497 15.8737 107.297 16.6632 107.307 17.6421C107.307 17.6526 107.307 17.6579 107.307 17.6684V29.8842C107.254 30.8632 106.418 31.6105 105.439 31.5579C104.534 31.5105 103.813 30.7895 103.766 29.8842V17.6684Z" fill="#7D8996"/>
<path d="M111.137 30.0632V30.0053C111.143 29.3474 111.432 28.7316 111.932 28.3053L120.155 18.9368H112.868C112.069 18.9842 111.379 18.3737 111.332 17.5737C111.285 16.7737 111.895 16.0842 112.695 16.0368C112.753 16.0316 112.811 16.0316 112.868 16.0368H123.055C124.017 16.0368 124.749 16.6211 124.749 17.4421V17.5316C124.743 18.179 124.465 18.7947 123.986 19.2316L115.752 28.6H123.36C124.159 28.6 124.807 29.2474 124.807 30.0474C124.807 30.8474 124.159 31.4947 123.36 31.4947H112.868C111.869 31.4947 111.137 30.8842 111.137 30.0632Z" fill="#7D8996"/>
<path d="M127.032 23.8526V23.7947C127.016 19.2421 130.694 15.5421 135.245 15.5211C139.796 15.5053 143.495 19.1842 143.511 23.7369V23.7947C143.495 28.2579 139.865 31.8684 135.403 31.8526C135.34 31.8526 135.282 31.8526 135.219 31.8474C130.805 31.9526 127.143 28.4632 127.032 24.0474C127.032 23.9842 127.032 23.9211 127.032 23.8526ZM139.97 23.8526V23.7947C139.97 21.0737 138.008 18.8211 135.235 18.8211C132.462 18.8211 130.584 21.0421 130.584 23.7369V23.7947C130.584 26.4895 132.546 28.7421 135.319 28.7421C138.155 28.7421 139.954 26.5158 139.954 23.8526H139.97Z" fill="#7D8996"/>
<path d="M147.11 17.6474C147.094 16.679 147.862 15.879 148.83 15.8632C148.841 15.8632 148.857 15.8632 148.867 15.8632C149.846 15.8579 150.645 16.6474 150.651 17.6263C150.651 17.6316 150.651 17.6421 150.651 17.6474V18.4105C151.645 16.9737 153.108 15.7368 155.481 15.7368C158.964 15.7368 161 18.0579 161 21.6316V29.8842C161.016 30.8369 160.258 31.6263 159.306 31.6421C159.285 31.6421 159.264 31.6421 159.243 31.6421C158.28 31.6632 157.48 30.8947 157.459 29.9316C157.459 29.9158 157.459 29.9 157.459 29.8842V22.7105C157.459 20.3105 156.259 18.9368 154.15 18.9368C152.04 18.9368 150.667 20.3737 150.667 22.7684V29.8842C150.614 30.8632 149.777 31.6105 148.799 31.5579C147.894 31.5105 147.173 30.7895 147.126 29.8842L147.11 17.6474Z" fill="#7D8996"/>
</g>
<defs>
<linearGradient id="paint0_linear" x1="9.18056" y1="6.62711" x2="19.3131" y2="20.4503" gradientUnits="userSpaceOnUse">
<stop stop-color="#000F55" stop-opacity="0.94"/>
<stop offset="0.11" stop-color="#000F55" stop-opacity="0.72"/>
<stop offset="0.35" stop-color="#000F55" stop-opacity="0.33"/>
<stop offset="0.54" stop-color="#000F55" stop-opacity="0.09"/>
<stop offset="0.67" stop-color="#000F55" stop-opacity="0"/>
</linearGradient>
<linearGradient id="paint1_linear" x1="19.8623" y1="13.2576" x2="36.1705" y2="23.4844" gradientUnits="userSpaceOnUse">
<stop stop-color="#000F55" stop-opacity="0.94"/>
<stop offset="0.11" stop-color="#000F55" stop-opacity="0.72"/>
<stop offset="0.35" stop-color="#000F55" stop-opacity="0.33"/>
<stop offset="0.54" stop-color="#000F55" stop-opacity="0.09"/>
<stop offset="0.67" stop-color="#000F55" stop-opacity="0"/>
</linearGradient>
<linearGradient id="paint2_linear" x1="24.0864" y1="20.8958" x2="34.6059" y2="27.4927" gradientUnits="userSpaceOnUse">
<stop stop-color="#000F55" stop-opacity="0.94"/>
<stop offset="0.11" stop-color="#000F55" stop-opacity="0.72"/>
<stop offset="0.35" stop-color="#000F55" stop-opacity="0.33"/>
<stop offset="0.54" stop-color="#000F55" stop-opacity="0.09"/>
<stop offset="0.67" stop-color="#000F55" stop-opacity="0"/>
</linearGradient>
<linearGradient id="paint3_linear" x1="12.2154" y1="22.8171" x2="18.648" y2="33.5626" gradientUnits="userSpaceOnUse">
<stop stop-color="#000F55" stop-opacity="0.94"/>
<stop offset="0.11" stop-color="#000F55" stop-opacity="0.72"/>
<stop offset="0.35" stop-color="#000F55" stop-opacity="0.33"/>
<stop offset="0.54" stop-color="#000F55" stop-opacity="0.09"/>
<stop offset="0.67" stop-color="#000F55" stop-opacity="0"/>
</linearGradient>
<clipPath id="clip0">
<rect width="161" height="40" fill="white" transform="translate(0 1)"/>
</clipPath>
</defs>
</svg>
